<svg id="Capa_1" enable-background="new 0 0 512 512" height="512" viewBox="0 0 512 512" width="512" xmlns="http://www.w3.org/2000/svg"><g><path d="m501 256c0 135.31-109.69 245-245 245s-245-109.69-245-245 109.69-245 245-245 245 109.69 245 245z" fill="#ffc14f"/><path d="m360 55c0 8.284-6.716 15-15 15h-30c-8.284 0-15-6.716-15-15s6.716-15 15-15h30c8.284 0 15 6.716 15 15zm125.481 115h-10.481c-8.284 0-15 6.716-15 15s6.716 15 15 15h19.571c-2.4-10.263-5.445-20.278-9.09-30zm-450.481 130h-20.06c1.856 10.236 4.348 20.25 7.434 30h12.626c8.284 0 15-6.716 15-15s-6.716-15-15-15zm230-230h-90c-8.284 0-15 6.716-15 15s6.716 15 15 15h90c8.284 0 15-6.716 15-15s-6.716-15-15-15zm-130 180h-90c-8.284 0-15 6.716-15 15s6.716 15 15 15h90c8.284 0 15-6.716 15-15s-6.716-15-15-15z" fill="#ffd993"/><path d="m472.556 270c0 62.163-50.393 112.556-112.556 112.556s-112.556-50.393-112.556-112.556 50.393-112.556 112.556-112.556 112.556 50.393 112.556 112.556z" fill="#fff36c"/><path d="m110 290h-30v-180h30z" fill="#51489a"/><path d="m442 290h-342v-180h342z" fill="#6a61b4"/><path d="m320 290h-60v-180h60zm110 0h-60v-180h60zm-190 0h-20v-180h20z" fill="#8078bf"/><path d="m434.5 270c-4.142 0-7.5-3.358-7.5-7.5v-145c0-4.142 3.358-7.5 7.5-7.5 4.142 0 7.5 3.358 7.5 7.5v145c0 4.142-3.358 7.5-7.5 7.5zm-357 0c-4.142 0-7.5-3.358-7.5-7.5v-145c0-4.142 3.358-7.5 7.5-7.5 4.142 0 7.5 3.358 7.5 7.5v145c0 4.142-3.358 7.5-7.5 7.5zm119 0c-4.142 0-7.5-3.358-7.5-7.5v-145c0-4.142 3.358-7.5 7.5-7.5 4.142 0 7.5 3.358 7.5 7.5v145c0 4.142-3.358 7.5-7.5 7.5zm119 0c-4.142 0-7.5-3.358-7.5-7.5v-145c0-4.142 3.358-7.5 7.5-7.5 4.142 0 7.5 3.358 7.5 7.5v145c0 4.142-3.358 7.5-7.5 7.5z" fill="#453d83"/><path d="m130 280v153.651c0 14.251-16.514 22.164-27.611 13.223-11.735-9.456-22.58-19.972-32.389-31.403v-155.471h40c11.046 0 20 8.954 20 20z" fill="#1380e2"/><path d="m442 260v155.471c-22.893 26.677-51.427 48.372-83.751 63.237-1.957.9-202.54.9-204.497.001-19.419-8.93-37.47-20.325-53.752-33.785v-184.924z" fill="#55a4f9"/><path d="m274 150h-121c-8.284 0-15-6.716-15-15 0-8.284 6.716-15 15-15h121c8.284 0 15 6.716 15 15 0 8.284-6.716 15-15 15z" fill="#0a66ea"/><path d="m475 150h-209.667c-8.284 0-15-6.716-15-15 0-8.284 6.716-15 15-15h209.667c8.284 0 15 6.716 15 15 0 8.284-6.716 15-15 15z" fill="#2476ed"/><path d="m250 127h-235c-8.284 0-15-6.716-15-15 0-8.284 6.716-15 15-15h235c8.284 0 15 6.716 15 15 0 8.284-6.716 15-15 15z" fill="#55a4f9"/><path d="m497 127h-252c-8.284 0-15-6.716-15-15 0-8.284 6.716-15 15-15h252c8.284 0 15 6.716 15 15 0 8.284-6.716 15-15 15z" fill="#86befb"/><path d="m358.25 460v18.708c-31.12 14.312-65.753 22.292-102.25 22.292s-71.13-7.98-102.25-22.292v-18.708c0-5.523 4.477-10 10-10h84.75c2.79 6.649 12.21 6.649 15 0h84.75c5.523 0 10 4.477 10 10zm27.75-40h-59c-5.523 0-10-4.477-10-10v-100c0-5.523 4.477-10 10-10h59c5.523 0 10 4.477 10 10v100c0 5.523-4.477 10-10 10zm-90.5-10v-100c0-5.523-4.477-10-10-10h-59c-5.523 0-10 4.477-10 10v100c0 5.523 4.477 10 10 10h59c5.523 0 10-4.477 10-10zm-100.5 0v-100c0-5.523-4.477-10-10-10h-59c-5.523 0-10 4.477-10 10v100c0 5.523 4.477 10 10 10h59c5.523 0 10-4.477 10-10z" fill="#e9f3fe"/><path d="m382 320v90c0 2.761-2.239 5-5 5h-41c-2.761 0-5-2.239-5-5v-90c0-2.761 2.239-5 5-5h41c2.761 0 5 2.239 5 5zm-146.5 95h41c2.761 0 5-2.239 5-5v-90c0-2.761-2.239-5-5-5h-41c-2.761 0-5 2.239-5 5v90c0 2.761 2.239 5 5 5zm103.75 50h-166.5c-2.761 0-5 2.239-5 5v14.625c25.173 9.723 52.354 15.409 80.75 16.263.776.023 1.741-1.478 2.519-1.462 1.719.036 8.882.033 10.731-.008.646-.014 1.105 1.49 1.75 1.471 28.396-.854 55.577-6.54 80.75-16.263v-14.626c0-2.761-2.239-5-5-5zm-158.25-55v-90c0-2.761-2.239-5-5-5h-41c-2.761 0-5 2.239-5 5v90c0 2.761 2.239 5 5 5h41c2.761 0 5-2.239 5-5z" fill="#453d83"/><path d="m170 425h-20v-110h20zm100-110h-20v110h20zm100 0h-20v110h20z" fill="#6a61b4"/><path d="m248.5 450h15v50.887c-2.491.075-4.991.113-7.5.113s-5.009-.038-7.5-.113z" fill="#b9d3fd"/><path d="m104.667 430h-39.667c-8.284 0-15-6.716-15-15 0-8.284 6.716-15 15-15h39.667c8.284 0 15 6.716 15 15 0 8.284-6.716 15-15 15z" fill="#76b6fa"/><path d="m447 430h-348.333c-8.284 0-15-6.716-15-15 0-8.284 6.716-15 15-15h348.333c8.284 0 15 6.716 15 15 0 8.284-6.716 15-15 15z" fill="#86befb"/><path d="m170 220h-150c-11.046 0-20-8.954-20-20v-150c0-11.046 8.954-20 20-20h150c11.046 0 20 8.954 20 20v150c0 11.046-8.954 20-20 20z" fill="#e9f3fe"/><path d="m50 220h-30c-11.046 0-20-8.954-20-20v-150c0-11.046 8.954-20 20-20h30c-11.046 0-20 8.954-20 20v150c0 11.046 8.954 20 20 20z" fill="#c8e2fd"/><path d="m160 110v30c0 5.523-4.477 10-10 10h-30v30c0 5.523-4.477 10-10 10h-30c-5.523 0-10-4.477-10-10v-30h-30c-5.523 0-10-4.477-10-10v-30c0-5.523 4.477-10 10-10h30v-30c0-5.523 4.477-10 10-10h30c5.523 0 10 4.477 10 10v30h30c5.523 0 10 4.477 10 10z" fill="#5db33a"/><path d="m160 110v30c0 5.523-4.477 10-10 10h-30v30c0 5.523-4.477 10-10 10h-10v-130h10c5.523 0 10 4.477 10 10v30h30c5.523 0 10 4.477 10 10z" fill="#6dc54a"/></g></svg>