<svg id="Capa_1" enable-background="new 0 0 501 501" height="512" viewBox="0 0 501 501" width="512" xmlns="http://www.w3.org/2000/svg"><g><path d="m6.02 240c8.215-126.162 112.836-227.194 240.993-228.976 131.515-1.828 239.657 99.982 247.973 228.976z" fill="#55a4f9"/><path d="m495.5 256c0 121.946-89.094 223.083-205.74 241.871-16.59-67.864-77.407-115.605-147.27-115.605h-101.99c-22.176-36.803-34.951-79.911-35-125.999-.009-8.87.458-17.633 1.377-26.267h487.26c.901 8.543 1.363 17.218 1.363 26z" fill="#1380e2"/><path d="m69.736 421.378c-10.986-12.001-20.792-25.1-29.236-39.113v-291.265h-2c-4.418 0-8-3.582-8-8v-34c0-4.418 3.582-8 8-8h2v-26c0-8.284 6.716-15 15-15h49v407.783c0 18.239-22.449 27.049-34.764 13.595z" fill="#453d83"/><path d="m290.5 90v20h1c4.418 0 8 3.582 8 8v34c0 4.418-3.582 8-8 8h-1v337.75c-.686.121-1.677.27-2.146.343-12.338 1.914-24.98 2.907-37.854 2.907-62.049 0-118.711-23.067-161.878-61.093-5.777-5.089-9.122-12.391-9.122-20.09v-404.817c0-8.284 6.716-15 15-15h181c8.284 0 15 6.716 15 15v25h1c4.418 0 8 3.582 8 8v34c0 4.418-3.582 8-8 8z" fill="#51489a"/><path d="m261.5 110v315c0 8.284-6.716 15-15 15h-157.773c-6.749-5.938-13.168-12.242-19.227-18.88v-311.12c0-8.284 6.716-15 15-15h162c8.284 0 15 6.716 15 15z" fill="#e9f3fe"/><path d="m69.5 110v-45c0-8.284 6.716-15 15-15h162c8.284 0 15 6.716 15 15v45z" fill="#82cd64"/><path d="m193 32.5h-26c-4.142 0-7.5-3.358-7.5-7.5 0-4.142 3.358-7.5 7.5-7.5h26c4.142 0 7.5 3.358 7.5 7.5 0 4.142-3.358 7.5-7.5 7.5zm-47.5-7.5c0-4.142-3.358-7.5-7.5-7.5-4.142 0-7.5 3.358-7.5 7.5 0 4.142 3.358 7.5 7.5 7.5 4.142 0 7.5-3.358 7.5-7.5zm34 435h-30c-7.261 0-13.317 5.16-14.702 12.012 13.582 7.29 27.931 13.337 42.894 17.988h1.808c8.284 0 15-6.716 15-15 0-8.284-6.716-15-15-15z" fill="#19305c"/><path d="m186.5 88h-84c-4.418 0-8-3.582-8-8 0-4.418 3.582-8 8-8h84c4.418 0 8 3.582 8 8 0 4.418-3.582 8-8 8z" fill="#5db33a"/><path d="m226.5 146h-124c-4.418 0-8-3.582-8-8 0-4.418 3.582-8 8-8h124c4.418 0 8 3.582 8 8 0 4.418-3.582 8-8 8zm-42 150.583c0-4.418-3.582-8-8-8h-74c-4.418 0-8 3.582-8 8 0 4.418 3.582 8 8 8h74c4.418 0 8-3.581 8-8zm40 30.167c0-4.418-3.582-8-8-8h-114c-4.418 0-8 3.582-8 8 0 4.418 3.582 8 8 8h114c4.418 0 8-3.582 8-8z" fill="#a7d0fc"/><path d="m234.5 219.926v12.574c0 8.284-6.716 15-15 15h-110c-8.284 0-15-6.716-15-15v-50c0-8.284 6.716-15 15-15h72.574c7.956 0 15.587 3.161 21.213 8.787l22.426 22.426c5.626 5.626 8.787 13.257 8.787 21.213z" fill="#f44545"/><path d="m187.75 211.443h-68.25c-5.523 0-10-4.477-10-10v-10c0-5.523 4.477-10 10-10h58.25c11.046 0 20 8.954 20 20 0 5.523-4.477 10-10 10z" fill="#c50048"/><path d="m144.5 247.5c0 11.046-8.954 20-20 20s-20-8.954-20-20 8.954-20 20-20 20 8.954 20 20zm60-20c-11.046 0-20 8.954-20 20s8.954 20 20 20 20-8.954 20-20-8.954-20-20-20z" fill="#0a3575"/><path d="m399.5 206.16c30.376 0 55 24.624 55 55v120c0 30.376-24.624 55-55 55-30.376 0-55-24.624-55-55v-120c0-30.376 24.624-55 55-55z" fill="#f44545"/><path d="m402.358 436.087c-.946.049-1.899.073-2.858.073-30.376 0-55-24.624-55-55v-120c0-30.375 24.624-55 55-55 .958 0 1.911.025 2.858.073-10.392 10.005-16.858 24.06-16.858 39.625v150.604c0 15.565 6.466 29.619 16.858 39.625z" fill="#c50048"/><path d="m399.5 326.16c13.807 0 25 11.193 25 25v20c0 13.807-11.193 25-25 25-13.807 0-25-11.193-25-25v-20c0-13.807 11.193-25 25-25z" fill="#ffc14f"/><path d="m352.852 274.121-88.388 88.388c-2.929 2.929-7.678 2.929-10.607 0l-10.607-10.607c-2.929-2.929-2.929-7.678 0-10.607l88.388-88.388c2.929-2.929 7.678-2.929 10.607 0l10.607 10.607c2.929 2.929 2.929 7.678 0 10.607z" fill="#86befb"/><path d="m347.549 279.424-46.206 46.206c-5.858 5.858-15.355 5.858-21.213 0-5.858-5.858-5.858-15.355 0-21.213l46.206-46.206c5.858-5.858 15.355-5.858 21.213 0 5.858 5.858 5.858 15.355 0 21.213z" fill="#a7d0fc"/><path d="m149.5 410h-30c-13.807 0-25-11.193-25-25 0-13.807 11.193-25 25-25h30c13.807 0 25 11.193 25 25 0 13.807-11.193 25-25 25z" fill="#5db33a"/><path d="m209.5 410h-60c-13.807 0-25-11.193-25-25 0-13.807 11.193-25 25-25h60c13.807 0 25 11.193 25 25 0 13.807-11.193 25-25 25z" fill="#82cd64"/><path d="m418.259 251.14-49.497 49.497c-5.858 5.858-15.355 5.858-21.213 0l-42.426-42.426c-5.858-5.858-5.858-15.355 0-21.213l49.497-49.498c5.858-5.858 15.355-5.858 21.213 0l42.426 42.426c5.858 5.858 5.858 15.356 0 21.214z" fill="#e9f3fe"/><path d="m410.508 226.511-39.142 39.142c-5.858 5.858-15.355 5.858-21.213 0l-10.046-10.046c-5.858-5.858-5.858-15.355 0-21.213l39.142-39.142c5.858-5.858 15.355-5.858 21.213 0l10.046 10.046c5.858 5.857 5.858 15.355 0 21.213z" fill="#fff5f5"/><path d="m401.063 225.956-.835.835c-2.698 2.698-7.073 2.698-9.772 0l-11.488-11.488c-2.698-2.698-2.698-7.073 0-9.772l.835-.835c2.698-2.698 7.073-2.698 9.772 0l11.488 11.488c2.698 2.699 2.698 7.074 0 9.772z" fill="#55a4f9"/><path d="m131.458 247.5c0 4.142-3.358 7.5-7.5 7.5s-7.5-3.358-7.5-7.5 3.358-7.5 7.5-7.5 7.5 3.358 7.5 7.5zm73.042-7.5c-4.142 0-7.5 3.358-7.5 7.5s3.358 7.5 7.5 7.5 7.5-3.358 7.5-7.5-3.358-7.5-7.5-7.5z" fill="#51489a"/></g></svg>