<svg id="Capa_1" enable-background="new 0 0 501 501" height="512" viewBox="0 0 501 501" width="512" xmlns="http://www.w3.org/2000/svg"><g><path d="m5.5 256c0-135.309 109.69-245 244.999-245 135.064 0 245.121 110.158 245.001 245.222-.05 56.791-19.424 109.059-51.9 150.584-10.215 13.061-29.15 15.384-42.206 5.163-41.593-32.56-93.977-51.969-150.894-51.969-61.689 0-118.053 22.8-161.125 60.432-6.339 5.538-15.968 5.078-21.578-1.197-38.743-43.333-62.297-100.533-62.297-163.235z" fill="#55a4f9"/><path d="m44.5 310h40v113.329c-5.733 2.111-12.4.719-16.703-4.094-38.743-43.334-62.297-100.533-62.297-163.235 0-2.006.024-4.006.072-6h23.928c2.761 0 5 2.239 5 5v45c0 5.523 4.477 10 10 10zm430-14.5c-2.761 0-5-2.239-5-5v-100.499c0-5.326-4.019-9.977-9.334-10.322-5.824-.377-10.666 4.235-10.666 9.978v100.843c0 2.761-2.239 5-5 5h-40v-90.5c0-2.761-2.239-5-5-5h-95c-5.523 0-10-4.477-10-10v-5c0-2.761-2.239-5-5-5h-85v180l182 41.183c5.103 3.412 10.072 7.01 14.895 10.786 13.084 10.243 32.026 7.862 42.258-5.23 24.802-31.736 41.953-69.74 48.679-111.239z" fill="#1380e2"/><path d="m344.5 75c0 8.284-6.716 15-15 15h-100c-8.284 0-15-6.716-15-15s6.716-15 15-15h100c8.284 0 15 6.716 15 15zm-85 35h-100c-8.284 0-15 6.716-15 15s6.716 15 15 15h100c8.284 0 15-6.716 15-15s-6.716-15-15-15zm180 40h-50c-8.284 0-15 6.716-15 15s6.716 15 15 15h50c8.284 0 15-6.716 15-15s-6.716-15-15-15zm-340 30h-50c-8.284 0-15 6.716-15 15s6.716 15 15 15h50c8.284 0 15-6.716 15-15s-6.716-15-15-15z" fill="#86befb"/><path d="m147.126 180c-4.142 0-7.5-3.358-7.5-7.5v-165c0-4.142 3.358-7.5 7.5-7.5 4.142 0 7.5 3.358 7.5 7.5v165c0 4.142-3.358 7.5-7.5 7.5z" fill="#453d83"/><path d="m227.126 170v215.388c0 66.567-76.942 103.89-129.036 62.447-11.154-8.873-21.516-18.699-30.964-29.354v-248.481c0-11.046 8.954-20 20-20h24v-50c0-11.046 8.954-20 20-20h32c11.046 0 20 8.954 20 20v50h24c11.045 0 20 8.954 20 20z" fill="#51489a"/><path d="m158.5 80h4.626c11.046 0 20 8.954 20 20v50h24c11.046 0 20 8.954 20 20v263.917c0 37.259-38.056 62.247-72.349 47.678-21.91-9.308-42.186-21.716-60.277-36.671v-254.924c0-11.046 8.954-20 20-20h9c8.284 0 15-6.716 15-15v-55c0-11.046 8.954-20 20-20z" fill="#5f55af"/><path d="m104.5 200v210c0 5.523-4.477 10-10 10s-10-4.477-10-10v-210c0-5.523 4.477-10 10-10s10 4.477 10 10zm26.667-10c-5.523 0-10 4.477-10 10v210c0 5.523 4.477 10 10 10s10-4.477 10-10v-210c0-5.523-4.477-10-10-10zm36.666 0c-5.523 0-10 4.477-10 10v210c0 5.523 4.477 10 10 10s10-4.477 10-10v-210c0-5.523-4.477-10-10-10zm36.667 0c-5.523 0-10 4.477-10 10v210c0 5.523 4.477 10 10 10s10-4.477 10-10v-210c0-5.523-4.477-10-10-10z" fill="#453d83"/><path d="m154.5 481.477v-216.477c0-8.284 6.716-15 15-15h250c8.284 0 15 6.716 15 15v152.772c-44.899 51.028-110.689 83.228-184 83.228-34.072 0-66.519-6.955-96-19.523z" fill="#ffc14f"/><path d="m184.5 492.007c-10.289-2.871-20.305-6.397-30-10.53v-216.477c0-8.284 6.716-15 15-15h15z" fill="#ffa90b"/><path d="m409.5 305v90c0 5.523-4.477 10-10 10h-46c-5.523 0-10-4.477-10-10v-90c0-5.523 4.477-10 10-10h46c5.523 0 10 4.477 10 10zm-92-10h-46c-5.523 0-10 4.477-10 10v90c0 5.523 4.477 10 10 10h46c5.523 0 10-4.477 10-10v-90c0-5.523-4.477-10-10-10zm0 145h-46c-5.523 0-10 4.477-10 10v50.757c22.963-1.015 45.104-5.19 66-12.102v-38.655c0-5.523-4.477-10-10-10zm82 0h-46c-5.523 0-10 4.477-10 10v32.732c23.379-9.6 44.945-22.71 64.043-38.675-1.822-2.461-4.746-4.057-8.043-4.057zm-164 0h-46c-5.523 0-10 4.477-10 10v40.554c20.953 6.333 43.091 9.937 66 10.396v-50.95c0-5.523-4.477-10-10-10zm0-145h-46c-5.523 0-10 4.477-10 10v90c0 5.523 4.477 10 10 10h46c5.523 0 10-4.477 10-10v-90c0-5.523-4.477-10-10-10z" fill="#ffd993"/><path d="m395.5 315v80c0 2.762-2.239 5-5 5h-28c-2.761 0-5-2.238-5-5v-80c0-2.762 2.239-5 5-5h28c2.761 0 5 2.238 5 5zm-87 140h-28c-2.761 0-5 2.238-5 5v39.74c12.994-1.317 25.687-3.649 38-6.917v-32.823c0-2.762-2.239-5-5-5zm0-145h-28c-2.761 0-5 2.238-5 5v80c0 2.762 2.239 5 5 5h28c2.761 0 5-2.238 5-5v-80c0-2.762-2.239-5-5-5zm54 145c-2.761 0-5 2.238-5 5v16.461c12.356-6.008 24.132-13.025 35.22-20.942-.669-.332-1.422-.519-2.22-.519zm-136-145h-28c-2.761 0-5 2.238-5 5v80c0 2.762 2.239 5 5 5h28c2.761 0 5-2.238 5-5v-80c0-2.762-2.239-5-5-5zm0 145h-28c-2.761 0-5 2.238-5 5v34.334c12.331 2.938 25.024 4.944 38 5.939v-40.273c0-2.762-2.239-5-5-5z" fill="#453d83"/><path d="m291.5 310h11v100h-11zm0 187.584c3.695-.623 7.363-1.328 11-2.114v-40.47h-11zm82-29.651c3.73-2.17 7.398-4.435 11-6.792v-6.141h-11zm0-157.933v100h11v-100zm-164 187.584c3.64.613 7.307 1.146 11 1.597v-44.181h-11zm0-87.584h11v-100h-11z" fill="#6a61b4"/><path d="m144.5 265c0-8.284 6.716-15 15-15h270c8.284 0 15 6.716 15 15s-6.716 15-15 15h-270c-8.284 0-15-6.716-15-15zm285 125h-270c-8.284 0-15 6.716-15 15s6.716 15 15 15h270c8.284 0 15-6.716 15-15s-6.716-15-15-15z" fill="#ffe1aa"/><path d="m449.5 260h-310c-8.284 0-15-6.716-15-15 0-8.284 6.716-15 15-15h310c8.284 0 15 6.716 15 15 0 8.284-6.716 15-15 15z" fill="#ffe7c0"/><path d="m449.5 260h-250c-8.284 0-15-6.716-15-15 0-8.284 6.716-15 15-15h250c8.284 0 15 6.716 15 15 0 8.284-6.716 15-15 15z" fill="#fff5f5"/><path d="m418.278 126.392-53.905 80.998c-2.317 3.481-63.652-80.998-63.652-80.998-18.635-28-14.93-65.259 8.853-89.043 27.573-27.573 72.278-27.573 99.851 0 23.784 23.783 27.488 61.042 8.853 89.043z" fill="#f44545"/><path d="m326.125 126.392 46.076 69.235-7.828 11.763c-2.317 3.481-7.431 3.481-9.747 0l-53.905-80.998c-18.635-28-14.931-65.259 8.853-89.043 17.031-17.031 40.598-23.542 62.627-19.534-13.635 2.481-26.682 8.992-37.223 19.534-23.783 23.783-27.488 61.042-8.853 89.043z" fill="#c50048"/><path d="m409.261 83.993c0 27.482-22.279 49.761-49.761 49.761s-49.761-22.279-49.761-49.761 22.279-49.761 49.761-49.761 49.761 22.279 49.761 49.761z" fill="#fff5f5"/><path d="m360.751 50.792 8.725 18.461c.202.427.607.721 1.075.781l20.254 2.594c1.159.148 1.623 1.578.773 2.379l-14.862 14.003c-.344.324-.498.8-.411 1.264l3.792 20.064c.217 1.148-.999 2.032-2.024 1.47l-17.91-9.807c-.414-.227-.915-.227-1.329 0l-17.91 9.807c-1.025.561-2.241-.322-2.024-1.47l3.792-20.064c.088-.464-.067-.94-.411-1.264l-14.862-14.003c-.85-.801-.386-2.231.773-2.379l20.254-2.594c.468-.06.873-.354 1.075-.781l8.725-18.461c.503-1.056 2.005-1.056 2.505 0z" fill="#fff36c"/><path d="m380.099 110.339c.217 1.148-.999 2.032-2.024 1.47l-17.91-9.807c-.414-.227-.915-.227-1.329 0l-17.91 9.807c-1.025.561-2.241-.322-2.024-1.47l3.792-20.064c.088-.464-.067-.94-.411-1.264l-14.862-14.003c-.85-.801-.386-2.231.773-2.379l15.418-1.974c4.901 12.22 16.857 20.849 30.828 20.849.7 0 1.396-.022 2.085-.065z" fill="#ffc14f"/></g></svg>