<svg id="Capa_1" enable-background="new 0 0 501 501" height="512" viewBox="0 0 501 501" width="512" xmlns="http://www.w3.org/2000/svg"><g><path d="m425.569 421.591c-44.684 48.699-108.811 79.269-180.08 79.409-135.168.264-245.489-109.832-245.489-245.001 0-135.309 109.691-244.999 245-244.999 112.537 0 207.352 75.876 236.08 179.26 1.523 5.479.256 11.363-3.438 15.687-36.564 42.8-58.642 98.348-58.642 159.053 0 19.479 2.273 38.426 6.569 56.591z" fill="#55a4f9"/><path d="m239 85c0-8.284 6.716-15 15-15h100c8.284 0 15 6.716 15 15s-6.716 15-15 15h-100c-8.284 0-15-6.716-15-15zm45 35h-100c-8.284 0-15 6.716-15 15s6.716 15 15 15h100c8.284 0 15-6.716 15-15s-6.716-15-15-15zm130 20h-50c-8.284 0-15 6.716-15 15s6.716 15 15 15h50c8.284 0 15-6.716 15-15s-6.716-15-15-15zm-280 240h-50c-8.284 0-15 6.716-15 15s6.716 15 15 15h50c8.284 0 15-6.716 15-15s-6.716-15-15-15z" fill="#86befb"/><path d="m419 244.75v105.25h-288.927l-76.366-178.414-12.846-149.878c-1.001-11.677 8.207-21.708 19.927-21.708h35.355c25.637 0 35.505 16.289 43.82 40.541l52.091 149.459h172.196c30.238 0 54.75 24.512 54.75 54.75z" fill="#453d83"/><path d="m419 244.75v105.25h-301.641c-10.384 0-19.04-7.946-19.927-18.292l-26.571-310c-1.001-11.677 8.207-21.708 19.927-21.708h5.355c25.637 0 48.442 16.289 56.757 40.541l3.23 9.42 26.37 140.039h181.75c30.238 0 54.75 24.512 54.75 54.75z" fill="#51489a"/><path d="m156.129 49.959 49.756 145.122-75.812 154.919h-42.714c-10.384 0-19.04-7.946-19.927-18.292l-13.725-160.123zm324.878 140.041h-115.007c-44.183 0-80 35.817-80 80 0 44.183 35.817 80 80 80h32.637c49.557 0 90.335-39.512 91.315-89.059.033-1.643.049-3.29.049-4.941-.001-22.867-3.134-45.002-8.994-66z" fill="#6a61b4"/><path d="m117.359 350h-30c-10.384 0-19.04-7.946-19.927-18.292l-13.725-160.123 27.229-32.334 16.496 192.457c.887 10.346 9.543 18.292 19.927 18.292z" fill="#5f55af"/><path d="m192.054 154.74-44.652 53.024c-4.996 5.933-7.431 13.607-6.768 21.335.912 10.642-4.05 20.935-12.944 26.849l-63.152 41.997-2.982-34.791 31.829-51.991c3.259-5.323 4.729-11.549 4.196-17.767l-.659-7.685c-.662-7.728 1.772-15.402 6.768-21.335l65.145-77.359z" fill="#8078bf"/><path d="m147.402 207.765c-4.996 5.933-7.431 13.607-6.768 21.335.912 10.642-4.05 20.935-12.944 26.85l-34.77 23.121-5.049-58.902 5.513-9.005c3.259-5.323 4.729-11.549 4.196-17.767l-.659-7.685c-.662-7.728 1.772-15.402 6.768-21.335l65.144-77.359 23.219 67.723z" fill="#958fca"/><path d="m482.529 268.415c-3.076 57.011-25.644 108.84-61.156 148.943-1.498 1.692-3.665 2.642-5.925 2.642h-206.448c-10.384 0-19.04-7.946-19.927-18.292l-26.571-310c-1.001-11.677 8.207-21.708 19.927-21.708h21.928c25.637 0 48.442 16.289 56.757 40.541l3.23 9.42 34.656 140.039h175.59c4.573 0 8.185 3.849 7.939 8.415z" fill="#c50048"/><path d="m225.573 420h-30c-10.384 0-19.04-7.946-19.927-18.292l-26.571-310c-1.001-11.677 8.207-21.708 19.926-21.708h30c-11.72 0-20.928 10.031-19.927 21.708l26.571 310c.888 10.346 9.544 18.292 19.928 18.292z" fill="#b40042"/><path d="m264.343 119.959 49.756 145.122-75.812 154.919h-42.714c-10.384 0-19.04-7.946-19.927-18.292l-13.725-160.123zm209.871 140.041c-44.183 0-80 35.817-80 80 0 29.922 16.427 56.006 40.754 69.728 33.423-40.985 53.846-92.991 54.981-149.728z" fill="#f44545"/><path d="m225.573 420h-30c-10.384 0-19.04-7.946-19.927-18.292l-13.725-160.123 27.229-32.334 16.496 192.457c.887 10.346 9.543 18.292 19.927 18.292z" fill="#c50048"/><path d="m254.352 217.616 3.163 19.389c.22 1.349-.947 2.516-2.296 2.296l-19.389-3.162c-.749-.122-1.502.19-1.945.806l-11.474 15.946c-.798 1.109-2.449 1.109-3.247 0l-11.474-15.946c-.443-.616-1.197-.928-1.945-.806l-19.389 3.162c-1.349.22-2.516-.947-2.296-2.296l3.163-19.389c.122-.749-.19-1.502-.806-1.945l-15.946-11.474c-1.109-.798-1.109-2.449 0-3.247l15.946-11.474c.616-.443.928-1.197.806-1.945l-3.163-19.389c-.22-1.349.947-2.516 2.296-2.296l19.389 3.163c.749.122 1.502-.19 1.945-.806l11.474-15.947c.798-1.109 2.449-1.109 3.247 0l11.474 15.947c.443.616 1.197.928 1.945.806l19.389-3.163c1.349-.22 2.516.947 2.296 2.296l-3.163 19.389c-.122.749.19 1.502.806 1.945l15.946 11.474c1.109.798 1.109 2.449 0 3.247l-15.946 11.474c-.616.443-.928 1.196-.806 1.945z" fill="#f29500"/><path d="m251.285 202.574c0 16.843-13.654 30.498-30.498 30.498s-30.498-13.654-30.498-30.498 13.654-30.498 30.498-30.498 30.498 13.654 30.498 30.498z" fill="#ffc14f"/><path d="m251.285 202.574c0 5.354-1.38 10.387-3.804 14.76-4.374 2.424-9.406 3.804-14.76 3.804-16.843 0-30.498-13.654-30.498-30.498 0-5.354 1.38-10.387 3.804-14.76 4.374-2.424 9.406-3.804 14.76-3.804 16.844 0 30.498 13.654 30.498 30.498z" fill="#fff36c"/><path d="m169.211 439.799 152.483-194.067c6.006-7.643 17.584-7.643 23.589 0l152.483 194.067c7.733 9.842.722 24.267-11.795 24.267h-304.965c-12.516.001-19.528-14.425-11.795-24.267z" fill="#ffc14f"/><path d="m181.006 464.066c-12.516 0-19.528-14.425-11.795-24.267l152.483-194.067c6.006-7.644 17.584-7.644 23.589 0l5.503 7.004-166.046 211.33z" fill="#ffb52d"/><path d="m461.007 429.433-121.62-154.787c-1.422-1.81-3.596-2.866-5.897-2.866s-4.476 1.057-5.897 2.866l-121.622 154.787c-1.773 2.258-2.104 5.33-.848 7.912 1.255 2.583 3.874 4.222 6.745 4.222h243.241c2.871 0 5.49-1.639 6.745-4.222 1.256-2.582.926-5.655-.847-7.912zm-233.707-2.867 106.189-135.147 106.189 135.147z" fill="#f29500"/><path d="m325.945 374.018v-94.738c0-4.143 3.358-7.5 7.5-7.5s7.5 3.357 7.5 7.5v94.738c0 4.143-3.358 7.5-7.5 7.5s-7.5-3.358-7.5-7.5zm7.544 22.595c-4.188 0-7.583 3.395-7.583 7.583s3.395 7.583 7.583 7.583 7.583-3.395 7.583-7.583-3.395-7.583-7.583-7.583z" fill="#fff5f5"/></g></svg>