<svg id="Capa_1" enable-background="new 0 0 512 512" height="512" viewBox="0 0 512 512" width="512" xmlns="http://www.w3.org/2000/svg"><g><path d="m501 256c0 109.345-71.632 201.959-170.53 233.477h-74.47v11.523c-135.31 0-245-109.69-245-245s109.69-245 245-245 245 109.69 245 245z" fill="#453d83"/><path d="m290 230c0 27.614-22.386 50-50 50s-50-22.386-50-50 22.386-50 50-50 50 22.386 50 50zm-75-149c19.33 0 35-15.67 35-35s-15.67-35-35-35-35 15.67-35 35 15.67 35 35 35zm170 209c-19.33 0-35 15.67-35 35s15.67 35 35 35 35-15.67 35-35-15.67-35-35-35zm-85-250c-11.046 0-20 8.954-20 20s8.954 20 20 20 20-8.954 20-20-8.954-20-20-20z" fill="#5f55af"/><path d="m320 60c0 1.399-.144 2.765-.417 4.083-1.318.273-2.684.417-4.083.417-11.046 0-20-8.954-20-20 0-1.399.144-2.765.417-4.083 1.318-.273 2.684-.417 4.083-.417 11.046 0 20 8.954 20 20zm65 230c-5.669 0-11.023 1.348-15.759 3.741-2.392 4.737-3.741 10.09-3.741 15.759 0 19.33 15.67 35 35 35 5.669 0 11.023-1.348 15.759-3.741 2.393-4.736 3.741-10.09 3.741-15.759 0-19.33-15.67-35-35-35zm-145-110c-9.839 0-19.014 2.843-26.75 7.75-4.908 7.735-7.75 16.91-7.75 26.75 0 27.614 22.386 50 50 50 9.839 0 19.014-2.843 26.75-7.75 4.908-7.735 7.75-16.91 7.75-26.75 0-27.614-22.386-50-50-50zm-9.5-114.5c5.669 0 11.023-1.348 15.759-3.741 2.393-4.736 3.741-10.09 3.741-15.759 0-19.33-15.67-35-35-35-5.669 0-11.023 1.348-15.759 3.741-2.392 4.737-3.741 10.09-3.741 15.759 0 19.33 15.67 35 35 35z" fill="#6a61b4"/><path d="m357.947 462-27.477 27.477c-23.484 7.484-48.505 11.523-74.47 11.523h-.058c-1.403-1.128-2.759-2.343-4.061-3.645l-190.061-190.061c-.002-.002-.003-.003-.005-.005l-36.208-36.208c-19.526-19.526-19.526-51.184 0-70.71l35.355-35.355c19.526-19.526 51.185-19.526 70.711 0l226.274 226.274c19.526 19.525 19.526 51.184 0 70.71z" fill="#1380e2"/><path d="m357.947 462-7.778 7.778c-19.526 19.526-51.184 19.526-70.711 0l-226.274-226.274c-19.526-19.526-19.526-51.184 0-70.711l7.778-7.778c19.526-19.526 51.184-19.526 70.711 0l226.274 226.274c19.526 19.526 19.526 51.185 0 70.711z" fill="#55a4f9"/><path d="m75.104 165.015-49.497 49.497c-5.858 5.858-15.355 5.858-21.213 0-5.858-5.858-5.858-15.355 0-21.213l49.497-49.497c5.858-5.858 15.355-5.858 21.213 0 5.858 5.858 5.858 15.355 0 21.213z" fill="#76b6fa"/><path d="m75.104 165.015-31.82 31.82c-5.858 5.858-15.355 5.858-21.213 0-5.858-5.858-5.858-15.355 0-21.213l31.82-31.82c5.858-5.858 15.355-5.858 21.213 0 5.858 5.858 5.858 15.355 0 21.213z" fill="#a7d0fc"/><path d="m233.496 353.106-143.189-143.19c-5.858-5.858-5.858-15.355 0-21.213 5.858-5.858 15.355-5.858 21.213 0l143.189 143.189c5.858 5.858 5.858 15.355 0 21.213-5.858 5.858-15.355 5.858-21.213.001z" fill="#76b6fa"/><path d="m427 246.333h-140c-38.66 0-70-31.34-70-70 0-38.66 31.34-70 70-70h140c38.66 0 70 31.34 70 70 0 38.66-31.34 70-70 70z" fill="#1380e2"/><path d="m320 110h50v130h-50zm70 0v130h20v-130z" fill="#55a4f9"/><path d="m350 246.333c0 8.284-6.716 15-15 15h-48c-47.148 0-85.454-38.587-84.996-85.839.454-46.794 39.283-84.161 86.08-84.161h46.916c8.284 0 15 6.716 15 15 0 8.284-6.716 15-15 15h-48c-30.611 0-55.462 25.137-54.993 55.854.46 30.179 25.646 54.146 55.828 54.146h47.165c8.284 0 15 6.716 15 15z" fill="#c50048"/><path d="m427 261.333h-107c-8.284 0-15-6.716-15-15s6.716-15 15-15h107c30.611 0 55.462-25.137 54.993-55.854-.46-30.179-25.646-54.146-55.828-54.146h-106.165c-8.284 0-15-6.716-15-15s6.716-15 15-15h105.916c46.796 0 85.626 37.367 86.08 84.161.458 47.252-37.848 85.839-84.996 85.839z" fill="#f44545"/><path d="m397 235h-80c-5.523 0-10-4.477-10-10 0-5.523 4.477-10 10-10h80c5.523 0 10 4.477 10 10 0 5.523-4.477 10-10 10z" fill="#ffa2c1"/><path d="m265 385c0 38.599-31.401 70-70 70s-70-31.401-70-70v-285h30v285c0 22.056 17.944 40 40 40s40-17.944 40-40z" fill="#ffcd71"/><path d="m140 317.397c-8.284 0-15-6.716-15-15v-187.397c0-8.284 6.716-15 15-15 8.284 0 15 6.716 15 15v187.397c0 8.284-6.716 15-15 15z" fill="#ffe1aa"/><path d="m160 140h-40c-5.523 0-10-4.477-10-10v-40c0-5.523 4.477-10 10-10h40c5.523 0 10 4.477 10 10v40c0 5.523-4.477 10-10 10zm130 245c0-8.284-6.716-15-15-15h-50c-8.284 0-15 6.716-15 15 0 8.284 6.716 15 15 15h50c8.284 0 15-6.716 15-15z" fill="#ffe7c0"/><path d="m160 140h-19c-5.523 0-10-4.477-10-10v-40c0-5.523 4.477-10 10-10h19c5.523 0 10 4.477 10 10v40c0 5.523-4.477 10-10 10zm130 245c0-8.284-6.716-15-15-15h-25.5c-8.284 0-15 6.716-15 15 0 8.284 6.716 15 15 15h25.5c8.284 0 15-6.716 15-15z" fill="#fff5f5"/></g></svg>