<svg id="Capa_1" enable-background="new 0 0 512 512" height="512" viewBox="0 0 512 512" width="512" xmlns="http://www.w3.org/2000/svg"><g><path d="m501 261.5c0 107.892-69.741 199.495-166.601 232.188-2.343.791-5.947-2.363-8.321-1.641-19.407 5.896-39.835 9.449-60.953 10.328-2.498.104-3.76 4.08-6.276 4.109-.948.011-1.898.016-2.849.016-135.31 0-245-109.69-245-245s109.69-245 245-245 245 109.69 245 245z" fill="#3493f8"/><path d="m470 275.5c0 104.934-85.066 190-190 190s-190-85.066-190-190 85.066-190 190-190 190 85.066 190 190z" fill="#55a4f9"/><path d="m285 475.5c-8.284 0-15-6.716-15-15v-220c0-8.284 6.716-15 15-15 8.284 0 15 6.716 15 15v220c0 8.284-6.716 15-15 15z" fill="#f29500"/><path d="m285 305.5c-8.284 0-15-6.716-15-15v-270c0-8.284 6.716-15 15-15 8.284 0 15 6.716 15 15v270c0 8.284-6.716 15-15 15z" fill="#ffb52d"/><path d="m334.994 221.2h-65.01c-2.761 0-5-2.239-5-5v-195.7c0-2.761 2.239-5 5-5h65.01c3.693 0 6.111 3.865 4.497 7.186-29.361 60.396-29.361 130.931 0 191.328 1.614 3.321-.805 7.186-4.497 7.186z" fill="#c50048"/><path d="m506.994 221.2h-209.01c-2.761 0-5-2.239-5-5v-195.7c0-2.761 2.239-5 5-5h209.01c3.693 0 6.111 3.865 4.497 7.186l-46.507 95.664 46.507 95.664c1.614 3.321-.805 7.186-4.497 7.186z" fill="#f44545"/><path d="m370 48c-37.22 0-67.5 30.28-67.5 67.5s30.28 67.5 67.5 67.5 67.5-30.28 67.5-67.5-30.28-67.5-67.5-67.5zm45.881 42h-20.865c-1.207-8.645-3.074-16.646-5.641-23.296 11.277 4.494 20.643 12.79 26.506 23.296zm-45.881-26.879c2.512 1.588 7.196 10.588 9.811 26.879h-19.622c2.615-16.292 7.299-25.291 9.811-26.879zm-51.445 62.879c-.692-3.394-1.055-6.905-1.055-10.5s.363-7.106 1.055-10.5h25.017c-.182 3.477-.272 6.99-.272 10.5s.09 7.023.272 10.5zm5.564 15h20.865c1.207 8.645 3.074 16.646 5.641 23.296-11.277-4.494-20.643-12.79-26.506-23.296zm20.866-51h-20.865c5.863-10.506 15.229-18.802 26.507-23.296-2.569 6.649-4.436 14.651-5.642 23.296zm25.015 77.879c-2.512-1.588-7.196-10.588-9.811-26.879h19.622c-2.615 16.291-7.299 25.291-9.811 26.879zm11.405-41.879h-22.811c-.19-3.307-.295-6.807-.295-10.5s.105-7.193.295-10.5h22.811c.19 3.307.295 6.807.295 10.5s-.105 7.193-.295 10.5zm7.969 38.296c2.568-6.649 4.435-14.651 5.641-23.296h20.865c-5.862 10.506-15.228 18.802-26.506 23.296zm7.054-38.296c.182-3.477.272-6.99.272-10.5s-.09-7.023-.272-10.5h25.017c.692 3.394 1.055 6.905 1.055 10.5s-.363 7.106-1.055 10.5z" fill="#ffe7c0"/><path d="m258.848 506.483-51.371-90.338c-6.639-11.674-2.557-26.52 9.118-33.158l20.312-11.551c11.674-6.639 26.52-2.556 33.158 9.118l64.334 113.133c-23.761 8.021-49.155 12.496-75.551 12.796z" fill="#c8e2fd"/><path d="m256.41 429.369c-17.283 9.828-39.261 3.785-49.09-13.498l-49.276-86.653c-6.639-11.674-2.556-26.52 9.118-33.158l20.312-11.551c11.674-6.639 26.52-2.556 33.158 9.118l49.276 86.653c9.829 17.283 3.785 39.261-13.498 49.089z" fill="#fff5f5"/><path d="m191.974 265.481c6.639 11.674 2.556 26.52-9.118 33.158l-1.188.676c-11.674 6.639-26.52 2.556-33.158-9.118-3.507-6.167-4.022-13.219-2.006-19.479-28.2 7.364-58.92-4.719-74.012-31.259l-1.977-3.477-69.206-121.7c-2.73-4.801-1.052-10.906 3.75-13.636 4.801-2.73 10.906-1.051 13.636 3.75l49.621 87.26c1.094-.911 2.283-1.738 3.563-2.466l72.469-41.21c11.674-6.639 26.52-2.557 33.158 9.118l9.73 17.11c15.093 26.54 9.77 59.119-10.977 79.589 6.41 1.469 12.208 5.517 15.715 11.684z" fill="#ffa90b"/><path d="m191.974 265.481c1.449 2.549 2.388 5.249 2.848 7.982-1.792 2.114-3.979 3.954-6.529 5.404l-.734.417c-11.603 6.599-26.595 3.003-33.395-8.484-.055-.093-.109-.185-.162-.279-2.503-4.355-1.095-9.914 3.093-12.688.048-.031.095-.063.143-.094 1.371-.905.815-3.016-.823-3.146-21.067-1.677-40.96-13.421-52.195-33.177l-21.75-38.248-49.432-86.928c-2.73-4.801-1.051-10.906 3.75-13.636s10.906-1.051 13.636 3.75l49.432 86.928 16.516-9.392-49.264-86.631c-2.633-4.63-1.438-10.659 3.013-13.586 4.877-3.207 11.365-1.59 14.204 3.402l49.432 86.928 10.591-6.022c1.281-.728 2.599-1.327 3.941-1.802l-49.621-87.26c-2.73-4.801-1.051-10.906 3.75-13.636s10.906-1.051 13.636 3.75l71.182 125.176c14.889 26.182 9.909 58.242-10.146 78.754-.795.192.265 1.073 1.546 1.507 5.45 1.843 10.27 5.617 13.338 11.011zm-173.279-161.085c-2.73-4.801-8.835-6.48-13.636-3.75-4.801 2.73-6.48 8.835-3.75 13.636l29.659 52.157c2.73 4.801 8.835 6.48 13.636 3.75s6.48-8.835 3.75-13.636z" fill="#ffc14f"/><path d="m80.082 138.51c2.73 4.801 1.051 10.906-3.75 13.636s-10.906 1.051-13.636-3.75l-29.658-52.156c-2.73-4.801-1.051-10.906 3.75-13.636 4.801-2.73 10.906-1.051 13.636 3.75zm4.243-71.435c-2.73-4.801-8.835-6.48-13.636-3.75s-6.479 8.835-3.75 13.636l29.659 52.157c2.73 4.801 8.835 6.48 13.636 3.75s6.479-8.835 3.75-13.636zm61.388 34.114-29.659-52.157c-2.73-4.801-8.835-6.479-13.636-3.75-4.801 2.73-6.48 8.835-3.75 13.636l29.659 52.157c2.73 4.801 8.835 6.48 13.636 3.75s6.48-8.835 3.75-13.636z" fill="#fff36c"/></g></svg>